<svg xmlns="http://www.w3.org/2000/svg" aria-hidden="true" style="position:absolute;width:0;height:0;overflow:hidden">
  <defs>
    <symbol id="icon-calendar" viewBox="0 0 32 32">
      <path stroke-linecap="round" stroke-linejoin="round" stroke-width="2.88" d="M25.333 5.333H6.666A2.667 2.667 0 0 0 3.999 8v18.667a2.667 2.667 0 0 0 2.667 2.667h18.667A2.667 2.667 0 0 0 28 26.667V8a2.667 2.667 0 0 0-2.667-2.667zM21.333 2.667V8M10.667 2.667V8M4 13.333h24"/>
    </symbol>
    <symbol id="icon-check" viewBox="0 0 32 32">
      <path fill="none" stroke="#08aa83" stroke-linecap="round" stroke-linejoin="round" stroke-width="2.182" d="M26.667 9.333 12 24l-6.667-6.667" style="stroke:var(--color1, #08aa83)"/>
    </symbol>
    <symbol id="icon-chevron-down" viewBox="0 0 32 32">
      <path stroke-linecap="round" stroke-linejoin="round" stroke-width="3.556" d="m8 12 8 8 8-8"/>
    </symbol>
    <symbol id="icon-cross-small" viewBox="0 0 32 32">
      <path fill="none" stroke="#ef2447" stroke-linecap="round" stroke-linejoin="round" stroke-width="2.909" d="M25.333 6.667 6.666 25.334m0-18.667 18.667 18.667" style="stroke:var(--color2, #ef2447)"/>
    </symbol>
    <symbol id="icon-edit" viewBox="0 0 32 32">
      <path fill="none" stroke="#f6b83d" stroke-linecap="round" stroke-linejoin="round" stroke-width="2.667" d="M22.667 4a3.766 3.766 0 0 1 4.109-.817 3.766 3.766 0 0 1 2.327 3.484 3.779 3.779 0 0 1-1.104 2.666l-18 18-7.333 2 2-7.333 18-18z" style="stroke:var(--color3, #f6b83d)"/>
    </symbol>
    <symbol id="icon-eye" viewBox="0 0 32 32">
      <path fill="none" stroke="#f6b83d" stroke-linecap="round" stroke-linejoin="round" stroke-width="2.909" d="M1.332 16S6.665 5.333 15.999 5.333 30.666 16 30.666 16s-5.333 10.667-14.667 10.667C6.666 26.667 1.332 16 1.332 16z" style="stroke:var(--color3, #f6b83d)"/>
      <path fill="none" stroke="#f6b83d" stroke-linecap="round" stroke-linejoin="round" stroke-width="2.909" d="M16 20a4 4 0 1 0 0-8 4 4 0 0 0 0 8z" style="stroke:var(--color3, #f6b83d)"/>
    </symbol>
    <symbol id="icon-eye-off" viewBox="0 0 32 32">
      <path fill="none" stroke="#f6b83d" stroke-linecap="round" stroke-linejoin="round" stroke-width="2.909" d="M23.922 23.92a13.43 13.43 0 0 1-7.92 2.747C6.669 26.667 1.335 16 1.335 16a24.605 24.605 0 0 1 6.747-7.92m5.12-2.427a12.161 12.161 0 0 1 2.8-.32C25.335 5.333 30.669 16 30.669 16a24.646 24.646 0 0 1-2.88 4.253m-8.961-1.426a4.01 4.01 0 0 1-2.855 1.273 3.996 3.996 0 0 1-3.779-2.501 3.995 3.995 0 0 1 .983-4.424M1.335 1.333l29.333 29.333" style="stroke:var(--color3, #f6b83d)"/>
    </symbol>
    <symbol id="icon-female" viewBox="0 0 32 32">
      <path fill="#f43f5e" d="M16 0c8.837 0 16 7.163 16 16s-7.163 16-16 16S0 24.837 0 16 7.163 0 16 0z" opacity=".1" style="fill:var(--color4, #f43f5e)"/>
      <path fill="none" stroke="#f43f5e" stroke-linecap="round" stroke-linejoin="round" stroke-width="1.2" d="M16 16.8a4 4 0 1 0 0-8 4 4 0 0 0 0 8zm0 0v6.4m-2.4-2.4h4.8" style="stroke:var(--color4, #f43f5e)"/>
    </symbol>
    <symbol id="icon-female-check" viewBox="0 0 32 32">
      <path fill="#f43f5e" d="M16 0c8.837 0 16 7.163 16 16s-7.163 16-16 16S0 24.837 0 16 7.163 0 16 0z" style="fill:var(--color4, #f43f5e)"/>
      <path fill="none" stroke="#fff" stroke-linecap="round" stroke-linejoin="round" stroke-width="1.2" d="M16 16.8a4 4 0 1 0 0-8 4 4 0 0 0 0 8zm0 0v6.4m-2.4-2.4h4.8" style="stroke:var(--color5, #fff)"/>
    </symbol>
    <symbol id="icon-fi-rr-angle-small-left" viewBox="0 0 32 32">
      <path d="M14.133 16.947a1.334 1.334 0 0 1 0-1.894l6.12-6.107a1.334 1.334 0 1 0-1.88-1.894l-6.12 6.12a4.001 4.001 0 0 0 0 5.654l6.12 6.12a1.336 1.336 0 0 0 1.88-1.894l-6.12-6.107z"/>
    </symbol>
    <symbol id="icon-fi-rr-angle-small-right" viewBox="0 0 32 32">
      <path d="M17.866 16.947a1.334 1.334 0 0 0 0-1.894l-6.12-6.107a1.334 1.334 0 1 1 1.88-1.894l6.12 6.12a4.001 4.001 0 0 1 0 5.654l-6.12 6.12a1.337 1.337 0 0 1-2.172-.434 1.331 1.331 0 0 1 .292-1.46l6.12-6.107z"/>
    </symbol>
    <symbol id="icon-heart" viewBox="0 0 32 32">
      <path fill="none" stroke="#f6b83d" stroke-linecap="round" stroke-linejoin="round" stroke-width="2.667" d="M27.788 6.147a7.345 7.345 0 0 0-5.187-2.15 7.33 7.33 0 0 0-5.187 2.15L16.001 7.56l-1.413-1.413a7.333 7.333 0 0 0-10.374 0 7.333 7.333 0 0 0 0 10.374l11.787 11.787 11.787-11.787a7.345 7.345 0 0 0 2.149-5.187 7.33 7.33 0 0 0-2.149-5.187z" style="stroke:var(--color3, #f6b83d)"/>
    </symbol>
    <symbol id="icon-image-cat" viewBox="0 0 32 32">
      <path fill="#fff4df" d="M32 16c0 8.837-7.163 16-16 16S0 24.837 0 16 7.163 0 16 0s16 7.163 16 16z" style="fill:var(--color6, #fff4df)"/>
      <path fill="#fff" d="M7.467 23.595h17.067V6.528H7.467v17.067z" style="fill:var(--color5, #fff)"/>
    </symbol>
    <symbol id="icon-image-dog" viewBox="0 0 32 32">
      <path fill="#fff4df" d="M32 16c0 8.837-7.163 16-16 16S0 24.837 0 16 7.163 0 16 0s16 7.163 16 16z" style="fill:var(--color6, #fff4df)"/>
      <path fill="#fff" d="M7.467 23.595h17.067V6.528H7.467v17.067z" style="fill:var(--color5, #fff)"/>
    </symbol>
    <symbol id="icon-logo" viewBox="0 0 106 32">
      <path fill="#262626" d="M9.169 25.461c-1.466 0-2.694-.348-3.687-1.043s-1.739-1.642-2.24-2.838c-.501-1.206-.751-2.555-.751-4.049 0-1.512.25-2.866.751-4.063s1.234-2.138 2.198-2.824c.974-.696 2.175-1.043 3.603-1.043 1.419 0 2.648.348 3.687 1.043 1.048.686 1.86 1.628 2.435 2.824.575 1.187.863 2.542.863 4.063 0 1.503-.283 2.852-.849 4.049s-1.363 2.143-2.393 2.838c-1.03.696-2.235 1.043-3.617 1.043zM1.92 31.722V10.018h2.963v10.546H5.3v11.158H1.919zm6.734-9.266c.872 0 1.591-.218 2.157-.654s.983-1.025 1.252-1.767c.278-.751.417-1.586.417-2.504 0-.909-.139-1.735-.417-2.477-.278-.751-.71-1.345-1.294-1.781-.584-.445-1.326-.668-2.226-.668-.853 0-1.549.209-2.087.626-.538.408-.937.983-1.197 1.725-.25.733-.376 1.591-.376 2.574 0 .974.125 1.832.376 2.574.26.742.663 1.322 1.21 1.739.557.408 1.285.612 2.184.612zm16.159 3.005c-1.521 0-2.857-.329-4.007-.988s-2.05-1.572-2.699-2.741c-.64-1.169-.96-2.514-.96-4.035 0-1.642.315-3.065.946-4.271.631-1.215 1.507-2.157 2.63-2.824S23.144 9.6 24.619 9.6c1.558 0 2.88.366 3.965 1.099 1.095.723 1.906 1.748 2.435 3.075s.728 2.889.598 4.689h-3.325v-1.224c-.009-1.632-.297-2.824-.863-3.576s-1.456-1.127-2.671-1.127c-1.373 0-2.393.427-3.061 1.28-.668.844-1.002 2.082-1.002 3.715 0 1.521.334 2.699 1.002 3.534s1.642 1.252 2.922 1.252c.826 0 1.535-.181 2.129-.543.603-.371 1.067-.904 1.391-1.6l3.311 1.002c-.575 1.354-1.465 2.407-2.671 3.158a7.31 7.31 0 0 1-3.965 1.127zm-5.176-6.998v-2.532h10.337v2.532H19.637zm22.778 6.58c-.993.185-1.966.264-2.922.237-.946-.018-1.795-.19-2.546-.515a3.528 3.528 0 0 1-1.711-1.572c-.343-.649-.524-1.312-.543-1.99s-.028-1.442-.028-2.296V5.843h3.339v12.87c0 .603.005 1.132.014 1.586.019.455.116.825.292 1.113.334.557.867.867 1.6.932s1.567.028 2.504-.111v2.81zM31.938 12.647v-2.63h10.477v2.63H31.938zm12.873 12.396V4.591h3.353v20.452h-3.353z" style="fill:var(--color7, #262626)"/>
      <path fill="#f6b83d" d="M63.298 9.762c-1.891-2.233-5.046-2.834-7.416-.789s-2.704 5.464-.843 7.883c1.192 1.549 4.245 4.422 6.286 6.287.678.62 1.017.93 1.424 1.054.349.107.748.107 1.097 0 .406-.124.745-.434 1.424-1.054 2.041-1.865 5.094-4.738 6.286-6.287 1.861-2.419 1.568-5.86-.842-7.883s-5.524-1.444-7.416.789z" style="fill:var(--color3, #f6b83d)"/>
      <path fill="#262626" d="m81.141 25.043-5.454-15.026h3.353l3.784 10.894 3.77-10.894h3.367l-5.454 15.026H81.14zm16.493.418c-1.521 0-2.857-.329-4.007-.988s-2.05-1.572-2.699-2.741c-.64-1.169-.96-2.514-.96-4.035 0-1.642.315-3.065.946-4.271.631-1.215 1.507-2.157 2.63-2.824S95.965 9.6 97.44 9.6c1.558 0 2.88.366 3.965 1.099 1.094.723 1.906 1.748 2.435 3.075s.728 2.889.598 4.689h-3.325v-1.224c-.009-1.632-.297-2.824-.863-3.576s-1.456-1.127-2.671-1.127c-1.373 0-2.393.427-3.061 1.28-.668.844-1.002 2.082-1.002 3.715 0 1.521.334 2.699 1.002 3.534s1.642 1.252 2.922 1.252c.825 0 1.535-.181 2.129-.543.603-.371 1.067-.904 1.391-1.6l3.311 1.002c-.575 1.354-1.466 2.407-2.671 3.158a7.31 7.31 0 0 1-3.965 1.127zm-5.176-6.998v-2.532h10.337v2.532H92.458z" style="fill:var(--color7, #262626)"/>
    </symbol>
    <symbol id="icon-male" viewBox="0 0 32 32">
      <path fill="#54adff" d="M16 0c8.837 0 16 7.163 16 16s-7.163 16-16 16S0 24.837 0 16 7.163 0 16 0z" opacity=".1" style="fill:var(--color8, #54adff)"/>
      <path fill="none" stroke="#54adff" stroke-linecap="round" stroke-linejoin="round" stroke-width="1.2" d="M16 15.2a4 4 0 1 0 0 8 4 4 0 0 0 0-8zm0 0V8.8m0 0 3.2 3.2M16 8.8 12.8 12" style="stroke:var(--color8, #54adff)"/>
    </symbol>
    <symbol id="icon-male-check" viewBox="0 0 32 32">
      <path fill="#54adff" d="M16 0c8.837 0 16 7.163 16 16s-7.163 16-16 16S0 24.837 0 16 7.163 0 16 0z" style="fill:var(--color8, #54adff)"/>
      <path fill="none" stroke="#fff" stroke-linecap="round" stroke-linejoin="round" stroke-width="1.2" d="M16 15.2a4 4 0 1 0 0 8 4 4 0 0 0 0-8zm0 0V8.8m0 0 3.2 3.2M16 8.8 12.8 12" style="stroke:var(--color5, #fff)"/>
    </symbol>
    <symbol id="icon-multiple" viewBox="0 0 32 32">
      <path fill="#fff4df" d="M16 0c8.837 0 16 7.163 16 16s-7.163 16-16 16S0 24.837 0 16 7.163 0 16 0z" style="fill:var(--color6, #fff4df)"/>
      <path fill="#f6b83d" d="M13.417 12.596a2.798 2.798 0 1 0 1.747 2.181.39.39 0 0 1 .073-.297.398.398 0 0 1 .559-.085.398.398 0 0 1 .158.262 3.598 3.598 0 1 1-2.247-2.803c.05.019.095.047.134.083s.07.08.091.128a.407.407 0 0 1 .008.309.394.394 0 0 1-.214.221.41.41 0 0 1-.309.004z" style="fill:var(--color3, #f6b83d)"/>
      <path fill="#f6b83d" d="M11.998 22v-3.199a.4.4 0 1 1 .8 0V22a.4.4 0 1 1-.8 0z" style="fill:var(--color3, #f6b83d)"/>
      <path fill="#f6b83d" d="M10.799 20.001a.4.4 0 0 1 .4-.4h2.399a.4.4 0 1 1 0 .8h-2.399a.4.4 0 0 1-.4-.4zm7.158-7.492a2.795 2.795 0 0 0-2.578.566 2.803 2.803 0 0 0-.962 2.459.392.392 0 0 1-.083.296.403.403 0 0 1-.563.068.398.398 0 0 1-.149-.268 3.603 3.603 0 0 1 2.241-3.767 3.598 3.598 0 1 1-.091 6.647.406.406 0 0 1-.213-.219.4.4 0 0 1 .529-.515 2.79 2.79 0 0 0 2.227-.006 2.798 2.798 0 0 0-.359-5.259z" style="fill:var(--color3, #f6b83d)"/>
      <path fill="#f6b83d" d="M19.513 13.286a.4.4 0 0 1 0-.566l2.999-2.999a.404.404 0 0 1 .284-.122.411.411 0 0 1 .286.117.395.395 0 0 1 .117.286.404.404 0 0 1-.122.284l-2.999 2.999a.4.4 0 0 1-.566 0z" style="fill:var(--color3, #f6b83d)"/>
      <path fill="#f6b83d" d="M22.764 12.404a.395.395 0 0 1-.395-.404l.02-1.589-1.589.02a.4.4 0 0 1-.292-.678.402.402 0 0 1 .281-.121l2.409-.03-.03 2.409a.395.395 0 0 1-.404.395z" style="fill:var(--color3, #f6b83d)"/>
    </symbol>
    <symbol id="icon-multiple-check" viewBox="0 0 32 32">
      <path fill="#f6b83d" d="M16 0c8.837 0 16 7.163 16 16s-7.163 16-16 16S0 24.837 0 16 7.163 0 16 0z" style="fill:var(--color3, #f6b83d)"/>
      <path fill="#fff" d="M13.417 12.596a2.798 2.798 0 1 0 1.747 2.181.39.39 0 0 1 .073-.297.398.398 0 0 1 .559-.085.398.398 0 0 1 .158.262 3.598 3.598 0 1 1-2.247-2.803c.05.019.095.047.134.083s.07.08.091.128a.407.407 0 0 1 .008.309.394.394 0 0 1-.214.221.41.41 0 0 1-.309.004z" style="fill:var(--color5, #fff)"/>
      <path fill="#fff" d="M11.998 22v-3.199a.4.4 0 1 1 .8 0V22a.4.4 0 1 1-.8 0z" style="fill:var(--color5, #fff)"/>
      <path fill="#fff" d="M10.799 20.001a.4.4 0 0 1 .4-.4h2.399a.4.4 0 1 1 0 .8h-2.399a.4.4 0 0 1-.4-.4zm7.158-7.492a2.795 2.795 0 0 0-2.578.566 2.803 2.803 0 0 0-.962 2.459.392.392 0 0 1-.083.296.403.403 0 0 1-.424.138.398.398 0 0 1-.288-.339 3.603 3.603 0 0 1 2.241-3.767 3.598 3.598 0 1 1-.091 6.647.406.406 0 0 1-.213-.219.4.4 0 0 1 .529-.515 2.79 2.79 0 0 0 2.227-.006 2.798 2.798 0 0 0-.359-5.259z" style="fill:var(--color5, #fff)"/>
      <path fill="#fff" d="M19.513 13.286a.4.4 0 0 1 0-.566l2.999-2.999a.404.404 0 0 1 .284-.122.411.411 0 0 1 .286.117.395.395 0 0 1 .117.286.404.404 0 0 1-.122.284l-2.999 2.999a.4.4 0 0 1-.566 0z" style="fill:var(--color5, #fff)"/>
      <path fill="#fff" d="M22.764 12.404a.395.395 0 0 1-.395-.404l.02-1.589-1.589.02a.4.4 0 0 1-.292-.678.402.402 0 0 1 .281-.121l2.409-.03-.03 2.409a.395.395 0 0 1-.404.395z" style="fill:var(--color5, #fff)"/>
    </symbol>
    <symbol id="icon-search" viewBox="0 0 32 32">
      <path stroke-linecap="round" stroke-linejoin="round" stroke-width="3.556" d="M14.667 25.333c5.891 0 10.667-4.776 10.667-10.667S20.558 3.999 14.667 3.999 4 8.775 4 14.666s4.776 10.667 10.667 10.667zM28.001 28l-5.8-5.8"/>
    </symbol>
    <symbol id="icon-star" viewBox="0 0 32 32">
      <path fill="#ffc531" stroke="#ffc531" stroke-width="2.4" d="M12.4 9.394 16 2.572l3.6 6.822a2.2 2.2 0 0 0 1.571 1.141l7.601 1.315-5.376 5.532a2.2 2.2 0 0 0-.6 1.846l1.098 7.635-6.922-3.404a2.199 2.199 0 0 0-1.941 0l-6.922 3.404 1.098-7.635a2.2 2.2 0 0 0-.6-1.846L3.231 11.85l7.601-1.315a2.202 2.202 0 0 0 1.571-1.141zm16.635 2.185zM7.767 27.031z" style="fill:var(--color9, #ffc531);stroke:var(--color9, #ffc531)"/>
    </symbol>
    <symbol id="icon-trash" viewBox="0 0 32 32">
      <path fill="none" stroke="#f6b83d" stroke-linecap="round" stroke-linejoin="round" stroke-width="2.667" d="M4 8h24M25.333 8v18.667a2.668 2.668 0 0 1-2.667 2.667H9.333a2.668 2.668 0 0 1-2.667-2.667V8m4.001 0V5.333a2.668 2.668 0 0 1 2.667-2.667h5.333a2.668 2.668 0 0 1 2.667 2.667V8M13.333 14.667v8M18.667 14.667v8" style="stroke:var(--color3, #f6b83d)"/>
    </symbol>
    <symbol id="icon-user" viewBox="0 0 32 32">
      <path fill="#fff4df" d="M32 16c0 8.837-7.163 16-16 16S0 24.837 0 16 7.163 0 16 0s16 7.163 16 16z" style="fill:var(--color6, #fff4df)"/>
      <path fill="#f6b83d" stroke="#f6b83d" stroke-linecap="round" stroke-linejoin="round" stroke-width="1.28" d="M16 17.92c-2.029 0-3.833.98-4.982 2.5-.247.327-.371.491-.367.712.003.171.11.386.245.492.174.137.415.137.897.137h8.413c.482 0 .723 0 .897-.137a.714.714 0 0 0 .245-.492c.004-.221-.12-.385-.367-.712-1.149-1.52-2.953-2.5-4.982-2.5zM16 16a2.88 2.88 0 1 0 .001-5.759A2.88 2.88 0 0 0 16 16z" style="fill:var(--color3, #f6b83d);stroke:var(--color3, #f6b83d)"/>
    </symbol>
     <symbol id="icon-x" viewBox="0 0 32 32">
      <path stroke-linecap="round" stroke-linejoin="round" stroke-width="3" d="M24 8 8 24M8 8l16 16"/>
    </symbol>
     <symbol id="icon-menu" viewBox="0 0 32 32">
      <path stroke-linecap="round" stroke-linejoin="round" stroke-width="3" d="M4 16h24M4 8h24M4 24h24"/>
    </symbol>
  </defs>
</svg>
